# xmcd
#
# Track frame offsets:
#	150
#	22142
#	38410
#	55207
#	71641
#	87512
#	107888
#	123866
#	143518
#	161253
#	184633
#	197331
#	216716
#	232570
#	250716
#	264658
#	278881
#	295126
#	319129
#	336714
# Disc length: 4681 seconds
# Revision: 1
# Processed by: cddbd v1.5.2PL0 Copyright (c) Steve Scherf et al.
#
# Submitted via: libkcddb 0.31
#
DISCID=25124714
DTITLE=Just Bob - Only You 2008
DYEAR=2008
DGENRE=Country
TTITLE0=Come Back
TTITLE1=Plenty Of Nothing
TTITLE2=Time To Smile Again
TTITLE3=I've Changed My Ways
TTITLE4=Mummy
TTITLE5=Only A Heartbeat Away
TTITLE6=Take Me Back
TTITLE7=Frustrating
TTITLE8=Only You
TTITLE9=Red Red Roses
TTITLE10=See You There
TTITLE11=Absent Minded Blues
TTITLE12=Coffee Bar Kids
TTITLE13=Mediterranean Sea
TTITLE14=Unknown Talent
TTITLE15=Smokers Lament
TTITLE16=Driving Around
TTITLE17=Computer
TTITLE18=She Don't Wanna Know
TTITLE19=Cancel Christmas
EXTD=www.thesongfactory.co.uk
EXTT0=
EXTT1=
EXTT2=
EXTT3=
EXTT4=
EXTT5=
EXTT6=
EXTT7=
EXTT8=
EXTT9=
EXTT10=
EXTT11=
EXTT12=
EXTT13=
EXTT14=
EXTT15=
EXTT16=
EXTT17=
EXTT18=
EXTT19=
PLAYORDER=
